<svg version="1.1" xmlns="http://www.w3.org/2000/svg" xmlns:xlink="http://www.w3.org/1999/xlink" width="133.89727" height="90.29279" viewBox="0,0,133.89727,90.29279"><g transform="translate(-173.53476,-105.34852)"><g data-paper-data="{&quot;isPaintingLayer&quot;:true}" fill-rule="nonzero" stroke="none" stroke-width="1" stroke-linecap="butt" stroke-linejoin="miter" stroke-miterlimit="10" stroke-dasharray="" stroke-dashoffset="0" style="mix-blend-mode: normal"><g><path d="M255.712,194.743c-2.872,-2.747 4.718,-12.692 -6.696,-19.956c-0.022,-1.373 2.991,-4.166 2.991,-4.166c0,0 9.775,3.607 11.521,12.795c1.092,5.762 -3.791,15.176 -7.816,11.327zM252.091,172.548l-1.401,1.648c2.504,1.484 5.029,3.754 6.463,7.092c1.5,3.496 -0.72,11.365 0.688,11.482c3.709,0.31 7.999,-13.798 -5.75,-20.222z" fill="#000000"/><path d="M257.842,192.768c-1.409,-0.117 0.812,-7.986 -0.688,-11.482c-1.434,-3.338 -3.959,-5.608 -6.463,-7.092l1.401,-1.648c13.748,6.426 9.458,20.534 5.75,20.222z" fill="#ff0000"/></g><g><path d="M269.604,181.696c-3.935,-0.534 -3.64,-13.042 -17.143,-12.208c-0.828,-1.098 -0.029,-5.129 -0.029,-5.129c0,0 10.029,-2.828 16.84,3.578c4.271,4.018 5.854,14.506 0.332,13.759zM253.63,165.868l-0.164,2.158c2.898,-0.271 6.275,0.081 9.396,1.938c3.271,1.947 6.1,9.617 7.308,8.885c3.183,-1.929 -1.64,-15.865 -16.54,-12.981z" fill="#000000"/><path d="M270.171,178.85c-1.208,0.732 -4.037,-6.938 -7.308,-8.885c-3.122,-1.858 -6.499,-2.209 -9.396,-1.938l0.164,-2.158c14.899,-2.885 19.722,11.051 16.54,12.981z" fill="#ff0000"/></g><g><path d="M225.709,194.738c-4.027,3.85 -8.911,-5.564 -7.817,-11.326c1.744,-9.186 11.52,-12.793 11.52,-12.793c0,0 3.015,2.791 2.993,4.166c-11.415,7.262 -3.825,17.209 -6.696,19.953zM230.733,174.192l-1.402,-1.649c-13.75,6.426 -9.459,20.534 -5.749,20.222c1.408,-0.117 -0.812,-7.984 0.688,-11.48c1.432,-3.34 3.957,-5.609 6.463,-7.093z" fill="#000000"/><path d="M229.33,172.543l1.402,1.649c-2.505,1.483 -5.03,3.752 -6.462,7.092c-1.5,3.496 0.72,11.363 -0.688,11.48c-3.711,0.314 -8.002,-13.795 5.748,-20.221z" fill="#ff0000"/></g><g><path d="M228.96,169.485c-13.503,-0.834 -13.209,11.673 -17.145,12.208c-5.521,0.748 -3.938,-9.738 0.333,-13.756c6.811,-6.408 16.84,-3.58 16.84,-3.58c0,0 0.798,4.03 -0.028,5.128zM227.954,168.023l-0.165,-2.158c-14.899,-2.883 -19.721,11.052 -16.537,12.98c1.208,0.732 4.036,-6.938 7.306,-8.884c3.121,-1.858 6.498,-2.209 9.396,-1.938z" fill="#000000"/><path d="M227.789,165.865l0.165,2.158c-2.898,-0.271 -6.275,0.08 -9.396,1.938c-3.27,1.946 -6.098,9.616 -7.306,8.884c-3.184,-1.928 1.638,-15.863 16.537,-12.98z" fill="#ff0000"/></g><g><path d="M221.674,151.96c-0.062,0.02 -0.126,0.043 -0.217,0.087c-4.564,2.235 -15.193,4.825 -21.623,-7.643c-2.235,0.167 -4.929,0.39 -7.12,-0.133c-15.23,-3.633 -21.543,-27.257 -10.418,-34.079c2.28,-1.398 4.599,-2.092 6.886,-0.47c3.041,2.156 0.685,4.805 1.922,7.459c0.557,1.197 1.577,1.273 2.546,1.937c2.951,2.021 -0.31,5.898 0.368,8.775c0.702,2.985 3.445,2.198 4.711,5.104c0.427,0.979 -0.17,2.433 0.519,2.929c0.039,0.046 0.084,0.077 0.137,0.092c0.009,0.004 0.013,0.012 0.023,0.016c0.006,-0.004 0.009,-0.009 0.015,-0.013c0.154,0.023 0.348,-0.05 0.559,-0.179c2.019,-1.235 2.67,-5.091 1.785,-6.552c-1.262,-2.086 0.957,-3.768 1.427,-5.74c0.57,-2.393 -2.341,-4.834 -1.214,-5.866c2.269,-2.08 9.918,4.53 10.923,7.812c1.829,5.964 -0.615,12.626 -5.864,16.284c-0.271,0.188 -0.411,0.439 -0.458,0.7c-0.135,0.278 -0.222,0.593 -0.235,0.861c-0.008,0.157 0.005,0.324 0.038,0.498c0.018,0.094 0.056,0.195 0.085,0.293c0.025,0.083 0.04,0.163 0.073,0.249c0.055,0.141 0.131,0.287 0.207,0.433c0.025,0.048 0.041,0.093 0.068,0.141c0.109,0.191 0.237,0.386 0.382,0.582c0.002,0.003 0.004,0.006 0.006,0.009c1.779,2.396 6.243,4.946 12.629,3.924c0.008,-0.002 0.016,-0.002 0.024,-0.003c0.673,1.222 1.307,2.004 1.816,2.493z" fill="#ff0000"/><path d="M223.625,152.125l-0.797,0.643c-4.577,4.508 -19.495,5.945 -23.952,-5.445c-15.696,1.531 -23.031,-9.952 -24.849,-18.81c-1.907,-9.293 1.61,-20.964 12.6,-23.097c2.103,-0.408 4.965,1.068 6.114,3.512c1.475,3.139 -2.048,7.08 2.603,9.036c4.166,1.751 1.151,6.762 1.175,8.617c0.043,3.252 3.28,3.113 3.466,6.271c0.444,-1.099 0.82,-2.198 0.453,-2.807c-2.455,-4.074 2.667,-5.455 0.261,-9.444c-5.407,-8.966 7.153,-6.718 12.72,1.872c2.487,3.836 2.817,10.765 0.296,14.74c-1.321,2.083 -3.82,4.711 -5.13,5.947c1.474,2.377 3.57,5.316 10.723,5.223l1.252,-0.406zM221.673,151.962v0c-0.508,-0.49 -1.142,-1.271 -1.815,-2.494c-0.008,0.002 -0.016,0.002 -0.024,0.003c-6.385,1.022 -10.847,-1.531 -12.629,-3.924c-0.003,-0.003 -0.004,-0.006 -0.006,-0.009c-0.146,-0.196 -0.273,-0.391 -0.382,-0.582c-0.027,-0.048 -0.043,-0.094 -0.068,-0.141c-0.077,-0.146 -0.152,-0.292 -0.207,-0.433c-0.033,-0.086 -0.048,-0.166 -0.073,-0.249c-0.029,-0.098 -0.067,-0.199 -0.085,-0.293c-0.033,-0.175 -0.046,-0.341 -0.038,-0.498c0.013,-0.268 0.1,-0.583 0.235,-0.861c0.048,-0.261 0.187,-0.512 0.458,-0.7c5.249,-3.658 7.693,-10.32 5.864,-16.284c-1.005,-3.282 -8.654,-9.892 -10.923,-7.812c-1.127,1.032 1.784,3.473 1.214,5.866c-0.47,1.972 -2.689,3.654 -1.427,5.74c0.885,1.461 0.234,5.317 -1.785,6.552c-0.212,0.129 -0.406,0.202 -0.559,0.179c-0.006,0.004 -0.009,0.009 -0.015,0.013c-0.01,-0.004 -0.014,-0.012 -0.023,-0.016c-0.053,-0.015 -0.098,-0.046 -0.137,-0.092c-0.689,-0.496 -0.093,-1.95 -0.519,-2.929c-1.266,-2.906 -4.009,-2.119 -4.711,-5.104c-0.678,-2.877 2.583,-6.754 -0.368,-8.775c-0.969,-0.664 -1.989,-0.74 -2.546,-1.937c-1.237,-2.654 1.119,-5.303 -1.922,-7.459c-2.287,-1.622 -4.606,-0.927 -6.886,0.47c-11.125,6.822 -4.813,30.446 10.418,34.079c2.191,0.523 4.885,0.3 7.12,0.133c6.43,12.468 17.059,9.878 21.623,7.643c0.091,-0.044 0.155,-0.067 0.216,-0.086z" fill="#272525"/></g><g><path d="M288.253,144.274c-2.192,0.523 -4.887,0.299 -7.12,0.132c-6.375,12.359 -17.321,9.701 -21.958,7.476c0.664,-0.724 1.339,-1.69 1.819,-2.427c6.987,1.172 11.699,-1.936 13.152,-4.491c0.019,-0.031 0.028,-0.061 0.045,-0.093c0.088,-0.164 0.171,-0.326 0.232,-0.483c0.03,-0.077 0.042,-0.148 0.065,-0.222c0.034,-0.108 0.075,-0.219 0.095,-0.323c0.033,-0.175 0.046,-0.342 0.038,-0.499c-0.007,-0.141 -0.036,-0.296 -0.08,-0.452c0.095,-0.207 0.023,-0.457 -0.329,-0.702c-0.149,-0.209 -0.329,-0.362 -0.525,-0.399c-4.899,-3.754 -7.388,-10.533 -5.623,-16.292c1.006,-3.281 8.654,-9.892 10.924,-7.812c1.128,1.033 -1.783,3.473 -1.214,5.867c0.471,1.971 2.689,3.654 1.427,5.739c-0.885,1.461 -0.233,5.317 1.785,6.552c0.211,0.129 0.405,0.201 0.558,0.179c0.006,0.004 0.009,0.009 0.015,0.013c0.009,-0.004 0.013,-0.012 0.022,-0.016c0.058,-0.016 0.109,-0.047 0.15,-0.101c0.668,-0.505 0.081,-1.948 0.507,-2.922c1.266,-2.906 4.008,-2.119 4.71,-5.104c0.678,-2.877 -2.582,-6.754 0.367,-8.775c0.969,-0.664 1.989,-0.741 2.547,-1.937c1.235,-2.655 -1.118,-5.303 1.922,-7.46c2.287,-1.622 4.605,-0.926 6.885,0.471c11.126,6.822 4.814,30.445 -10.416,34.081z" fill="#ff0000"/><path d="M306.939,128.513c-1.818,8.858 -9.154,20.341 -24.848,18.809c-4.457,11.39 -19.377,9.953 -23.953,5.445l-0.639,-0.893l2.375,-4.5c0,0 0.697,0.395 1.786,1.01c7.341,0.095 9.354,-3.004 10.836,-5.41c-1.018,-0.864 -3.727,-3.367 -5.246,-5.759c-2.52,-3.974 -2.19,-10.904 0.298,-14.74c5.566,-8.59 18.125,-10.838 12.719,-1.872c-2.405,3.989 2.717,5.369 0.261,9.444c-0.367,0.61 0.01,1.708 0.452,2.807c0.186,-3.158 3.424,-3.018 3.467,-6.271c0.024,-1.855 -2.991,-6.866 1.176,-8.618c4.652,-1.956 1.128,-5.897 2.604,-9.036c1.147,-2.444 4.009,-3.919 6.113,-3.511c10.99,2.133 14.508,13.804 12.599,23.095zM298.669,110.192c-2.281,-1.398 -4.598,-2.093 -6.885,-0.471c-3.04,2.157 -0.687,4.805 -1.922,7.46c-0.558,1.196 -1.578,1.273 -2.547,1.937c-2.949,2.021 0.311,5.898 -0.367,8.775c-0.702,2.985 -3.444,2.198 -4.71,5.104c-0.426,0.974 0.161,2.417 -0.507,2.922c-0.041,0.054 -0.091,0.085 -0.15,0.101c-0.008,0.004 -0.012,0.012 -0.022,0.016c-0.006,-0.004 -0.009,-0.009 -0.015,-0.013c-0.154,0.023 -0.347,-0.05 -0.558,-0.179c-2.017,-1.235 -2.67,-5.091 -1.785,-6.552c1.261,-2.085 -0.956,-3.768 -1.427,-5.739c-0.569,-2.394 2.342,-4.834 1.214,-5.867c-2.27,-2.08 -9.918,4.531 -10.924,7.812c-1.765,5.759 0.724,12.538 5.623,16.292c0.196,0.037 0.376,0.19 0.525,0.399c0.351,0.245 0.424,0.495 0.329,0.702c0.044,0.156 0.073,0.311 0.08,0.452c0.008,0.157 -0.005,0.324 -0.038,0.499c-0.02,0.103 -0.061,0.215 -0.095,0.323c-0.023,0.075 -0.035,0.145 -0.065,0.222c-0.06,0.157 -0.143,0.319 -0.232,0.483c-0.017,0.031 -0.026,0.062 -0.045,0.093c-1.455,2.553 -6.166,5.663 -13.152,4.491v0c-0.48,0.737 -1.155,1.703 -1.819,2.427c4.637,2.225 15.583,4.883 21.958,-7.476c2.233,0.167 4.928,0.391 7.12,-0.132c15.23,-3.635 21.542,-27.258 10.416,-34.081z" fill="#272525"/></g><g><path d="M236.347,135.7l-1.59,2.58c-4.059,-2.501 -6.699,-8.653 -7.514,-13.271c-2.071,-0.026 -4.226,-1.127 -5.97,-3.849c-4.046,-6.314 4.822,-14.939 10.56,-9.856c5.108,4.526 2.597,10.908 -1.64,13.01c0.659,3.967 2.961,9.418 6.154,11.386zM227.531,122.764l1.802,-0.08c1.015,-0.273 1.968,-0.939 2.676,-2.111c0.587,-0.97 0.824,-1.903 0.704,-3.108c-0.758,-7.7 -11.015,-6.688 -9.446,0.996c0.48,2.352 2.305,3.971 4.264,4.303z" fill="#000000"/><path d="M232.713,117.465c0.12,1.205 -0.117,2.138 -0.704,3.108c-2.466,4.081 -7.861,2.199 -8.742,-2.112c-1.569,-7.684 8.688,-8.695 9.446,-0.996z" fill="#ffffff"/><path d="M225.229,114.764c0,-1.51216 1.22584,-2.738 2.738,-2.738c1.51216,0 2.738,1.22584 2.738,2.738c0,1.51216 -1.22584,2.738 -2.738,2.738c-1.51216,0 -2.738,-1.22584 -2.738,-2.738z" fill="#000000"/></g><g><path d="M250.697,125.012c-2.504,3.065 -4.926,7.873 -4.476,11.361l-3.006,0.388c-0.539,-4.176 1.831,-9.288 4.511,-12.864c-0.119,-0.086 -0.24,-0.169 -0.357,-0.266c-8.721,-7.197 3.28,-20.245 10.212,-10.218c3.503,5.069 -1.654,11.994 -6.884,11.599zM256.478,117.695c0,-0.087 0.001,-0.173 -0.003,-0.263c-0.008,-0.152 -0.024,-0.309 -0.042,-0.467c-0.008,-0.078 -0.013,-0.154 -0.025,-0.235c-0.036,-0.242 -0.081,-0.489 -0.143,-0.745c-1.031,-4.278 -6.488,-5.971 -8.809,-1.806c-0.555,0.99 -0.758,1.931 -0.598,3.131c0.035,0.261 0.083,0.51 0.139,0.75c0.017,0.073 0.038,0.142 0.057,0.213c0.044,0.164 0.089,0.325 0.141,0.479c0.026,0.075 0.055,0.148 0.083,0.221c0.054,0.144 0.111,0.283 0.173,0.418c0.032,0.065 0.063,0.13 0.095,0.193c0.07,0.137 0.143,0.269 0.22,0.396c0.03,0.049 0.06,0.099 0.091,0.147c0.095,0.145 0.194,0.282 0.298,0.413c0.018,0.023 0.035,0.048 0.054,0.07c1.305,1.591 3.281,2.102 4.977,1.659c0.025,-0.006 0.051,-0.015 0.076,-0.022c0.133,-0.038 0.266,-0.081 0.396,-0.13c0.037,-0.014 0.073,-0.029 0.11,-0.044c0.117,-0.049 0.233,-0.101 0.345,-0.16c0.041,-0.02 0.08,-0.041 0.12,-0.063c0.107,-0.059 0.211,-0.124 0.313,-0.193c0.039,-0.027 0.078,-0.052 0.116,-0.079c0.103,-0.074 0.2,-0.154 0.296,-0.237c0.033,-0.028 0.067,-0.054 0.098,-0.083c0.11,-0.1 0.213,-0.208 0.312,-0.321c0.014,-0.016 0.029,-0.029 0.043,-0.045c0.113,-0.133 0.218,-0.274 0.316,-0.423c0.014,-0.021 0.025,-0.045 0.039,-0.066c0.078,-0.126 0.154,-0.256 0.221,-0.393c0.026,-0.054 0.049,-0.112 0.073,-0.167c0.049,-0.11 0.096,-0.222 0.137,-0.339c0.024,-0.068 0.044,-0.14 0.065,-0.21c0.033,-0.113 0.065,-0.226 0.091,-0.343c0.017,-0.078 0.032,-0.157 0.046,-0.237c0.021,-0.119 0.037,-0.24 0.05,-0.365c0.008,-0.084 0.017,-0.169 0.022,-0.255c0.008,-0.13 0.008,-0.263 0.007,-0.399z" fill="#000000"/><path d="M256.477,117.433c0.004,0.09 0.003,0.176 0.003,0.263c0.001,0.135 0,0.268 -0.008,0.398c-0.004,0.086 -0.013,0.171 -0.022,0.255c-0.013,0.124 -0.029,0.246 -0.05,0.365c-0.014,0.08 -0.029,0.159 -0.046,0.237c-0.027,0.117 -0.058,0.231 -0.091,0.343c-0.021,0.07 -0.041,0.142 -0.065,0.21c-0.041,0.117 -0.088,0.229 -0.137,0.339c-0.024,0.056 -0.047,0.113 -0.073,0.167c-0.068,0.137 -0.143,0.267 -0.221,0.393c-0.014,0.021 -0.025,0.045 -0.039,0.066c-0.097,0.149 -0.203,0.29 -0.316,0.423c-0.014,0.016 -0.028,0.029 -0.043,0.045c-0.099,0.113 -0.203,0.22 -0.312,0.321c-0.032,0.029 -0.066,0.055 -0.098,0.083c-0.096,0.083 -0.193,0.163 -0.296,0.237c-0.038,0.028 -0.077,0.053 -0.116,0.079c-0.101,0.068 -0.206,0.133 -0.313,0.193c-0.04,0.021 -0.08,0.042 -0.12,0.063c-0.113,0.058 -0.228,0.111 -0.345,0.16c-0.037,0.014 -0.073,0.03 -0.11,0.044c-0.129,0.049 -0.262,0.092 -0.396,0.13c-0.025,0.006 -0.051,0.015 -0.076,0.022c-1.697,0.444 -3.672,-0.068 -4.977,-1.659c-0.019,-0.023 -0.036,-0.047 -0.054,-0.07c-0.104,-0.131 -0.203,-0.268 -0.298,-0.413c-0.031,-0.047 -0.061,-0.097 -0.091,-0.147c-0.077,-0.126 -0.151,-0.258 -0.22,-0.396c-0.033,-0.063 -0.065,-0.128 -0.095,-0.193c-0.062,-0.135 -0.119,-0.274 -0.173,-0.418c-0.028,-0.073 -0.057,-0.145 -0.083,-0.221c-0.052,-0.154 -0.097,-0.315 -0.141,-0.479c-0.019,-0.071 -0.04,-0.139 -0.057,-0.213c-0.056,-0.24 -0.104,-0.489 -0.139,-0.75c-0.16,-1.2 0.043,-2.141 0.598,-3.131c2.322,-4.165 7.779,-2.472 8.809,1.806c0.062,0.256 0.108,0.504 0.143,0.745c0.011,0.08 0.016,0.156 0.025,0.235c0.017,0.159 0.034,0.316 0.043,0.468z" fill="#ffffff"/><path d="M248.894,114.275c0,-1.5116 1.2254,-2.737 2.737,-2.737c1.5116,0 2.737,1.2254 2.737,2.737c0,1.5116 -1.2254,2.737 -2.737,2.737c-1.5116,0 -2.737,-1.2254 -2.737,-2.737z" fill="#000000"/></g><g><path d="M240.717,136.764c7.812,-0.036 17.913,2.925 19.028,7.236c0.964,3.714 -0.771,7.033 -2.814,9.974c-3.48,5.01 -4.48,11.893 -7.184,16.896c-1.828,3.385 -5.546,4.949 -9.03,4.811c-3.483,0.141 -7.203,-1.426 -9.03,-4.811c-2.702,-5.004 -4.17,-11.889 -7.65,-16.896c-2.042,-2.94 -3.778,-6.26 -2.816,-9.974c1.117,-4.311 11.683,-7.272 19.496,-7.236z" fill="#ff0000"/><path d="M260.425,153.271c-4.316,5.492 -6.685,19.426 -8.683,21.823c-2.512,3.012 -6.725,3.319 -10.978,3.324c-4.351,-0.005 -8.563,-0.311 -11.074,-3.324c-1.999,-2.397 -4.367,-16.331 -8.683,-21.823c-3.906,-4.972 -4.432,-11.423 0,-14.492c4.52,-3.13 12.085,-4.263 19.658,-4.263h0.102c7.573,0 15.138,1.132 19.657,4.263c4.432,3.07 3.905,9.521 0.001,14.492zM259.745,144c-1.115,-4.311 -11.216,-7.272 -19.028,-7.236c-7.813,-0.037 -18.379,2.925 -19.496,7.236c-0.962,3.714 0.774,7.034 2.816,9.974c3.48,5.007 4.948,11.892 7.65,16.896c1.827,3.385 5.547,4.952 9.03,4.811c3.484,0.138 7.202,-1.426 9.03,-4.811c2.704,-5.003 3.704,-11.886 7.184,-16.896c2.043,-2.941 3.778,-6.26 2.814,-9.974z" fill="#272525"/></g></g></g></svg>